<svg width="171" height="49" viewBox="0 0 171 49" fill="none" xmlns="http://www.w3.org/2000/svg">
<path d="M68.7613 23.3184C68.7613 23.0254 68.706 22.7617 68.5953 22.5273C68.4846 22.2865 68.3153 22.0651 68.0875 21.8633C67.8531 21.6745 67.5601 21.502 67.2086 21.3457C66.8635 21.1895 66.4533 21.0462 65.9781 20.916C65.2489 20.7142 64.5946 20.4701 64.0152 20.1836C63.4358 19.8906 62.954 19.5651 62.5699 19.207C62.1793 18.849 61.8798 18.4486 61.6714 18.0059C61.4631 17.5566 61.3589 17.0618 61.3589 16.5215C61.3589 15.9225 61.4859 15.3789 61.7398 14.8906C62.0002 14.4023 62.355 13.9889 62.8043 13.6504C63.247 13.3053 63.7678 13.0417 64.3668 12.8594C64.9657 12.6771 65.607 12.5859 66.2906 12.5859C67.0067 12.5859 67.6675 12.6934 68.273 12.9082C68.885 13.1165 69.4123 13.4128 69.855 13.7969C70.2977 14.181 70.6428 14.64 70.8902 15.1738C71.1441 15.7077 71.2711 16.2936 71.2711 16.9316H68.7711C68.7515 16.5931 68.6832 16.2839 68.566 16.0039C68.4553 15.724 68.2991 15.4831 68.0972 15.2812C67.8824 15.0794 67.622 14.9232 67.316 14.8125C67.01 14.6953 66.6552 14.6367 66.2515 14.6367C65.8935 14.6367 65.5679 14.6823 65.275 14.7734C64.982 14.8646 64.7313 14.9915 64.523 15.1543C64.3147 15.3236 64.1552 15.5254 64.0445 15.7598C63.9338 15.9876 63.8785 16.2415 63.8785 16.5215C63.8785 16.821 63.9501 17.0879 64.0933 17.3223C64.2431 17.5501 64.4514 17.7487 64.7183 17.918C64.9852 18.1003 65.2977 18.263 65.6558 18.4062C66.0204 18.543 66.4143 18.6699 66.8375 18.7871C67.3388 18.9303 67.8173 19.1029 68.273 19.3047C68.7352 19.5065 69.1584 19.7474 69.5425 20.0273C70.0764 20.4245 70.5028 20.8932 70.8218 21.4336C71.1408 21.9674 71.3004 22.5892 71.3004 23.2988C71.3004 23.9238 71.1701 24.4772 70.9097 24.959C70.6558 25.4408 70.3043 25.8477 69.855 26.1797C69.4123 26.5117 68.8882 26.7624 68.2828 26.9316C67.6838 27.1009 67.0393 27.1855 66.3492 27.1855C65.6461 27.1855 64.9527 27.0781 64.2691 26.8633C63.5855 26.6484 62.9898 26.3359 62.482 25.9258C62.0067 25.5286 61.6291 25.0632 61.3492 24.5293C61.0757 23.9889 60.9358 23.3639 60.9293 22.6543H63.4488C63.4683 23.084 63.5497 23.4551 63.6929 23.7676C63.8427 24.0801 64.0445 24.3405 64.2984 24.5488C64.5523 24.7507 64.8518 24.9004 65.1968 24.998C65.5484 25.0957 65.9325 25.1445 66.3492 25.1445C66.7138 25.1445 67.0425 25.1022 67.3355 25.0176C67.6285 24.9329 67.8824 24.8125 68.0972 24.6562C68.3056 24.5 68.4683 24.3079 68.5855 24.0801C68.7027 23.8522 68.7613 23.5983 68.7613 23.3184ZM74.2886 27L72.316 16.4336H74.6207L75.4996 22.8105L75.6461 23.9238L75.8511 22.8105L77.1011 16.4336H78.7808L80.0406 22.7812L80.2457 23.9336L80.4117 22.7715L81.2711 16.4336H83.5757L81.6031 27H79.4254L78.1558 21.1797L77.9214 19.9883L77.6968 21.1797L76.4664 27H74.2886ZM86.0953 16.4336H91.7789V24.9297H94.7672V27H86.0953V24.9297H89.23V18.5137H86.0953V16.4336ZM89.025 13.7188C89.025 13.5169 89.0608 13.3314 89.1324 13.1621C89.204 12.9928 89.3049 12.8464 89.4351 12.7227C89.5588 12.6055 89.7086 12.5143 89.8843 12.4492C90.0666 12.3841 90.2685 12.3516 90.4898 12.3516C90.9065 12.3516 91.2385 12.4622 91.4859 12.6836C91.7398 12.9049 91.8765 13.1947 91.8961 13.5527C91.9156 13.9043 91.8179 14.2005 91.6031 14.4414C91.3948 14.6823 91.0985 14.819 90.7144 14.8516C90.5321 14.9167 90.3433 14.9427 90.148 14.9297C89.9592 14.9102 89.7737 14.8483 89.5914 14.7441C89.4091 14.6465 89.2691 14.5065 89.1714 14.3242C89.0738 14.1419 89.025 13.9401 89.025 13.7188ZM100.119 27V18.3086H97.316V16.4336H100.119V15.8184C100.119 15.1283 100.226 14.5195 100.441 13.9922C100.662 13.4648 100.972 13.0189 101.369 12.6543C101.772 12.2962 102.257 12.026 102.824 11.8438C103.397 11.6549 104.035 11.5605 104.738 11.5605C104.972 11.5605 105.197 11.5703 105.412 11.5898C105.633 11.6094 105.851 11.6354 106.066 11.668C106.261 11.694 106.457 11.7233 106.652 11.7559C106.847 11.7884 107.049 11.8275 107.257 11.873L107.072 13.8652C106.824 13.8066 106.538 13.7546 106.212 13.709C105.893 13.6634 105.526 13.6406 105.109 13.6406C104.66 13.6406 104.276 13.6927 103.957 13.7969C103.638 13.901 103.384 14.054 103.195 14.2559C103.013 14.4316 102.876 14.653 102.785 14.9199C102.7 15.1803 102.658 15.4798 102.658 15.8184V16.4336H106.525V18.3086H102.658V27H100.119ZM114.328 13.8555V16.4336H118.283V18.3086H114.328V23.1035C114.328 23.4941 114.373 23.8197 114.464 24.0801C114.556 24.334 114.683 24.5358 114.845 24.6855C115.015 24.8483 115.216 24.9622 115.451 25.0273C115.685 25.0924 115.942 25.125 116.222 25.125C116.424 25.125 116.632 25.1152 116.847 25.0957C117.069 25.0697 117.28 25.0404 117.482 25.0078C117.677 24.9818 117.86 24.9525 118.029 24.9199C118.205 24.8874 118.351 24.8548 118.468 24.8223L118.732 26.5703C118.55 26.6745 118.335 26.7656 118.087 26.8438C117.847 26.9219 117.586 26.987 117.306 27.0391C117.026 27.0911 116.733 27.1302 116.427 27.1562C116.128 27.1888 115.828 27.2051 115.529 27.2051C114.975 27.2051 114.468 27.1302 114.005 26.9805C113.55 26.8307 113.159 26.5964 112.834 26.2773C112.502 25.9648 112.244 25.5645 112.062 25.0762C111.886 24.5879 111.798 23.9987 111.798 23.3086V18.3086H109.308V16.4336H111.798V13.8555H114.328Z" fill="currentColor"/>
<path d="M125.802 12.7812L126.3 18.4551L128.966 12.7812H132.091L129.621 27H127.316L128.117 22.3809L129.318 16.1895L126.32 22.4688H125.041L124.357 16.1406L123.351 22.5859L122.58 27H120.275L122.746 12.7812H125.802ZM138.761 27C138.709 26.8242 138.68 26.6549 138.673 26.4922C138.667 26.3229 138.667 26.1504 138.673 25.9746C138.53 26.1113 138.38 26.2383 138.224 26.3555C138.074 26.4661 137.918 26.5703 137.755 26.668C137.449 26.8438 137.121 26.9772 136.769 27.0684C136.424 27.1595 136.059 27.2018 135.675 27.1953C135.233 27.1888 134.813 27.1139 134.416 26.9707C134.018 26.821 133.673 26.6126 133.38 26.3457C133.081 26.0853 132.85 25.7695 132.687 25.3984C132.524 25.0208 132.453 24.5977 132.472 24.1289C132.498 23.6602 132.589 23.2467 132.746 22.8887C132.908 22.5306 133.117 22.2181 133.371 21.9512C133.631 21.6908 133.931 21.4694 134.269 21.2871C134.608 21.1048 134.969 20.9583 135.353 20.8477C135.731 20.737 136.121 20.6589 136.525 20.6133C136.935 20.5677 137.339 20.5449 137.736 20.5449L139.357 20.5645L139.484 19.8711C139.523 19.5977 139.51 19.3568 139.445 19.1484C139.386 18.9336 139.285 18.7513 139.142 18.6016C138.999 18.4583 138.82 18.3477 138.605 18.2695C138.39 18.1914 138.149 18.1491 137.882 18.1426C137.635 18.1361 137.404 18.1621 137.189 18.2207C136.981 18.2728 136.792 18.3607 136.623 18.4844C136.466 18.5951 136.333 18.7383 136.222 18.9141C136.112 19.0898 136.033 19.2917 135.988 19.5195L133.517 19.5391C133.563 18.9661 133.732 18.4714 134.025 18.0547C134.318 17.6315 134.683 17.2832 135.119 17.0098C135.555 16.7363 136.037 16.5378 136.564 16.4141C137.098 16.2839 137.622 16.222 138.136 16.2285C138.69 16.2415 139.211 16.3294 139.699 16.4922C140.187 16.6549 140.61 16.8861 140.968 17.1855C141.32 17.498 141.584 17.8822 141.759 18.3379C141.942 18.7871 142.003 19.3112 141.945 19.9102L141.203 24.5293C141.144 24.9069 141.102 25.291 141.076 25.6816C141.05 26.0723 141.102 26.4531 141.232 26.8242L141.212 27H138.761ZM136.3 25.2129C136.574 25.2194 136.841 25.1901 137.101 25.125C137.368 25.0534 137.619 24.9525 137.853 24.8223C138.029 24.7181 138.198 24.5977 138.361 24.4609C138.524 24.3242 138.673 24.1712 138.81 24.002L139.152 22.1074L137.882 22.0977C137.602 22.0977 137.313 22.1204 137.013 22.166C136.72 22.2116 136.444 22.2865 136.183 22.3906C136.027 22.4688 135.877 22.5534 135.734 22.6445C135.591 22.7357 135.467 22.8496 135.363 22.9863C135.265 23.1035 135.184 23.237 135.119 23.3867C135.054 23.5365 135.008 23.709 134.982 23.9043C134.956 24.1191 134.969 24.3079 135.021 24.4707C135.08 24.6335 135.171 24.7702 135.294 24.8809C135.412 24.985 135.555 25.0664 135.724 25.125C135.9 25.1836 136.092 25.2129 136.3 25.2129ZM151.134 24.0605C151.16 23.8913 151.141 23.7448 151.076 23.6211C151.017 23.4909 150.933 23.377 150.822 23.2793C150.724 23.2012 150.607 23.1328 150.47 23.0742C150.334 23.0091 150.194 22.957 150.05 22.918C149.783 22.8529 149.53 22.7943 149.289 22.7422C149.054 22.6836 148.833 22.6283 148.625 22.5762C148.234 22.472 147.873 22.3548 147.541 22.2246C147.215 22.0879 146.899 21.9154 146.593 21.707C146.229 21.4727 145.933 21.1797 145.705 20.8281C145.483 20.4701 145.382 20.0404 145.402 19.5391C145.421 18.8945 145.617 18.3444 145.988 17.8887C146.365 17.4264 146.824 17.0684 147.365 16.8145C147.768 16.6257 148.205 16.4824 148.673 16.3848C149.149 16.2806 149.608 16.2318 150.05 16.2383C150.578 16.2448 151.089 16.3164 151.584 16.4531C152.085 16.5898 152.531 16.7982 152.921 17.0781C153.306 17.3581 153.615 17.7096 153.849 18.1328C154.084 18.5495 154.201 19.0508 154.201 19.6367L151.75 19.627C151.756 19.36 151.714 19.1322 151.623 18.9434C151.531 18.7546 151.405 18.5983 151.242 18.4746C151.072 18.3509 150.877 18.2598 150.656 18.2012C150.441 18.1426 150.21 18.1133 149.962 18.1133C149.748 18.1133 149.52 18.1361 149.279 18.1816C149.044 18.2207 148.82 18.2891 148.605 18.3867C148.397 18.4909 148.218 18.6276 148.068 18.7969C147.918 18.9661 147.824 19.1745 147.785 19.4219C147.739 19.6758 147.778 19.8809 147.902 20.0371C148.032 20.1934 148.195 20.3171 148.39 20.4082C148.592 20.5059 148.81 20.5807 149.044 20.6328C149.279 20.6784 149.484 20.7207 149.66 20.7598C149.92 20.8118 150.19 20.8737 150.47 20.9453C150.757 21.0169 151.033 21.1048 151.3 21.209C151.502 21.2806 151.697 21.3652 151.886 21.4629C152.075 21.554 152.251 21.6615 152.414 21.7852C152.752 22.0195 153.029 22.3125 153.244 22.6641C153.459 23.0091 153.553 23.4323 153.527 23.9336C153.494 24.5781 153.302 25.1185 152.951 25.5547C152.599 25.9844 152.169 26.3262 151.662 26.5801C151.206 26.8014 150.711 26.9609 150.177 27.0586C149.65 27.1628 149.149 27.2116 148.673 27.2051C148.14 27.1986 147.615 27.1204 147.101 26.9707C146.587 26.821 146.128 26.5964 145.724 26.2969C145.314 26.0039 144.982 25.6393 144.728 25.2031C144.481 24.7669 144.36 24.2526 144.367 23.6602L146.72 23.6699C146.733 23.9694 146.795 24.2266 146.906 24.4414C147.016 24.6497 147.169 24.819 147.365 24.9492C147.554 25.0859 147.772 25.1868 148.019 25.252C148.266 25.3105 148.527 25.3398 148.8 25.3398C149.015 25.3398 149.25 25.3236 149.503 25.291C149.757 25.252 150.002 25.1836 150.236 25.0859C150.457 24.9948 150.649 24.8678 150.812 24.7051C150.981 24.5358 151.089 24.321 151.134 24.0605ZM160.216 22.5371L158.703 23.7773L158.146 27H155.685L158.293 12H160.753L159.259 20.584L160.226 19.6562L163.693 16.4336H166.828L162.023 20.9453L165.392 27H162.511L160.216 22.5371Z" fill="var(--accent)"/>
<path d="M65.2066 36.3828C65.1806 36.6009 65.1382 36.8223 65.0797 37.0469C65.0211 37.2682 64.9462 37.4798 64.855 37.6816C64.7639 37.8867 64.6532 38.0771 64.523 38.2529C64.3961 38.4287 64.2496 38.5801 64.0836 38.707C63.9175 38.834 63.7287 38.9316 63.5172 39C63.3088 39.0716 63.0777 39.1042 62.8238 39.0977C62.648 39.0944 62.4804 39.0684 62.3209 39.0195C62.1614 38.9707 62.0149 38.8975 61.8814 38.7998C61.8163 38.7477 61.7528 38.6908 61.691 38.6289C61.6324 38.5671 61.577 38.4987 61.525 38.4238L61.3345 39H60.2164L61.5152 31.5H62.7505L62.2281 34.2197C62.2997 34.1449 62.3729 34.0765 62.4478 34.0146C62.5227 33.9528 62.5976 33.8991 62.6724 33.8535C62.8091 33.7754 62.9524 33.7168 63.1021 33.6777C63.2551 33.6354 63.4179 33.6159 63.5904 33.6191C63.8313 33.6257 64.0412 33.668 64.2203 33.7461C64.4026 33.8242 64.5588 33.9284 64.689 34.0586C64.816 34.1888 64.9185 34.3418 64.9966 34.5176C65.078 34.6901 65.1382 34.874 65.1773 35.0693C65.2164 35.2646 65.2375 35.4665 65.2408 35.6748C65.2473 35.8799 65.2408 36.0817 65.2213 36.2803L65.2066 36.3828ZM63.9859 36.2803C63.9989 36.1663 64.0071 36.0459 64.0103 35.9189C64.0168 35.7887 64.0136 35.6602 64.0005 35.5332C63.9875 35.4193 63.9647 35.3102 63.9322 35.2061C63.8996 35.1019 63.8524 35.0091 63.7906 34.9277C63.7287 34.8464 63.649 34.7812 63.5513 34.7324C63.4569 34.6836 63.3397 34.6576 63.1998 34.6543C63.0728 34.651 62.9556 34.6641 62.8482 34.6934C62.7408 34.7227 62.6399 34.7666 62.5455 34.8252C62.4576 34.8805 62.3762 34.9473 62.3013 35.0254C62.2265 35.1003 62.1565 35.1849 62.0914 35.2793L61.7203 37.4424C61.7528 37.54 61.7935 37.6263 61.8423 37.7012C61.8944 37.776 61.9563 37.8395 62.0279 37.8916C62.106 37.9535 62.1972 37.999 62.3013 38.0283C62.4088 38.0576 62.5113 38.0723 62.6089 38.0723C62.775 38.0723 62.9084 38.0544 63.0093 38.0186C63.1102 37.9827 63.2063 37.9323 63.2974 37.8672C63.4081 37.7891 63.5041 37.6898 63.5855 37.5693C63.6669 37.4456 63.732 37.3154 63.7808 37.1787C63.8297 37.055 63.8703 36.9248 63.9029 36.7881C63.9354 36.6481 63.9599 36.513 63.9761 36.3828L63.9859 36.2803ZM69.3521 39C69.3261 38.9121 69.3114 38.8275 69.3082 38.7461C69.3049 38.6615 69.3049 38.5752 69.3082 38.4873C69.2366 38.5557 69.1617 38.6191 69.0836 38.6777C69.0087 38.7331 68.9306 38.7852 68.8492 38.834C68.6962 38.9219 68.5318 38.9886 68.356 39.0342C68.1835 39.0798 68.0012 39.1009 67.8091 39.0977C67.5878 39.0944 67.3778 39.057 67.1793 38.9854C66.9807 38.9105 66.8082 38.8063 66.6617 38.6729C66.5119 38.5426 66.3964 38.3848 66.315 38.1992C66.2336 38.0104 66.1978 37.7988 66.2076 37.5645C66.2206 37.3301 66.2662 37.1234 66.3443 36.9443C66.4257 36.7653 66.5298 36.609 66.6568 36.4756C66.787 36.3454 66.9367 36.2347 67.106 36.1436C67.2753 36.0524 67.456 35.9792 67.648 35.9238C67.8368 35.8685 68.0321 35.8294 68.2339 35.8066C68.439 35.7839 68.6408 35.7725 68.8394 35.7725L69.65 35.7822L69.7134 35.4355C69.733 35.2988 69.7265 35.1784 69.6939 35.0742C69.6646 34.9668 69.6142 34.8757 69.5425 34.8008C69.4709 34.7292 69.3814 34.6738 69.274 34.6348C69.1666 34.5957 69.0461 34.5745 68.9127 34.5713C68.789 34.568 68.6734 34.5811 68.566 34.6104C68.4618 34.6364 68.3674 34.6803 68.2828 34.7422C68.2047 34.7975 68.1379 34.8691 68.0826 34.957C68.0272 35.0449 67.9882 35.1458 67.9654 35.2598L66.73 35.2695C66.7528 34.9831 66.8375 34.7357 66.9839 34.5273C67.1304 34.3158 67.3127 34.1416 67.5308 34.0049C67.7489 33.8682 67.9898 33.7689 68.2535 33.707C68.5204 33.6419 68.7825 33.611 69.0396 33.6143C69.3163 33.6208 69.5767 33.6647 69.8209 33.7461C70.065 33.8275 70.2766 33.943 70.4556 34.0928C70.6314 34.249 70.7632 34.4411 70.8511 34.6689C70.9423 34.8936 70.9732 35.1556 70.9439 35.4551L70.5728 37.7646C70.5435 37.9535 70.5224 38.1455 70.5093 38.3408C70.4963 38.5361 70.5224 38.7266 70.5875 38.9121L70.5777 39H69.3521ZM68.1216 38.1064C68.2584 38.1097 68.3918 38.0951 68.522 38.0625C68.6555 38.0267 68.7808 37.9762 68.898 37.9111C68.9859 37.859 69.0705 37.7988 69.1519 37.7305C69.2333 37.6621 69.3082 37.5856 69.3765 37.501L69.5474 36.5537L68.9127 36.5488C68.7727 36.5488 68.6278 36.5602 68.4781 36.583C68.3316 36.6058 68.1933 36.6432 68.063 36.6953C67.9849 36.7344 67.9101 36.7767 67.8384 36.8223C67.7668 36.8678 67.705 36.9248 67.6529 36.9932C67.6041 37.0518 67.5634 37.1185 67.5308 37.1934C67.4983 37.2682 67.4755 37.3545 67.4625 37.4521C67.4494 37.5596 67.456 37.654 67.482 37.7354C67.5113 37.8167 67.5569 37.8851 67.6187 37.9404C67.6773 37.9925 67.7489 38.0332 67.8336 38.0625C67.9214 38.0918 68.0175 38.1064 68.1216 38.1064ZM74.3326 38.0918C74.4693 38.0951 74.6011 38.0788 74.7281 38.043C74.855 38.0039 74.9706 37.9453 75.0748 37.8672C75.1757 37.7956 75.2619 37.7061 75.3336 37.5986C75.4052 37.488 75.454 37.3643 75.48 37.2275L76.6324 37.2178C76.6129 37.5107 76.5315 37.776 76.3882 38.0137C76.245 38.248 76.0627 38.4466 75.8414 38.6094C75.62 38.7721 75.3726 38.8975 75.0992 38.9854C74.829 39.07 74.5539 39.109 74.274 39.1025C74.0298 39.0993 73.8069 39.0651 73.605 39C73.4065 38.9316 73.2307 38.8421 73.0777 38.7314C72.8889 38.585 72.7294 38.4076 72.5992 38.1992C72.4722 37.9909 72.3795 37.763 72.3209 37.5156C72.2818 37.3529 72.2574 37.182 72.2476 37.0029C72.2379 36.8239 72.2427 36.6416 72.2623 36.4561L72.2818 36.2949C72.3274 35.9173 72.4267 35.5641 72.5797 35.2354C72.7359 34.9066 72.941 34.6104 73.1949 34.3467C73.426 34.109 73.6962 33.9268 74.0054 33.7998C74.3179 33.6696 74.6614 33.6094 75.0357 33.6191C75.3319 33.6257 75.6005 33.6794 75.8414 33.7803C76.0855 33.8812 76.2922 34.0195 76.4615 34.1953C76.6308 34.3743 76.7577 34.5876 76.8423 34.835C76.9302 35.0791 76.966 35.3493 76.9498 35.6455L75.7925 35.6406C75.8023 35.5039 75.7909 35.3753 75.7584 35.2549C75.7258 35.1344 75.6721 35.0286 75.5972 34.9375C75.5256 34.8496 75.4345 34.7796 75.3238 34.7275C75.2131 34.6755 75.0845 34.6462 74.938 34.6396C74.7818 34.6331 74.6418 34.651 74.5181 34.6934C74.3944 34.7357 74.2821 34.7943 74.1812 34.8691C74.0998 34.9342 74.025 35.0107 73.9566 35.0986C73.8882 35.1865 73.8313 35.276 73.7857 35.3672C73.7108 35.5072 73.6506 35.6569 73.605 35.8164C73.5627 35.9759 73.5318 36.1354 73.5123 36.2949L73.4879 36.4512C73.4781 36.5618 73.4716 36.6807 73.4683 36.8076C73.4651 36.9313 73.47 37.0518 73.483 37.1689C73.4992 37.3024 73.5285 37.431 73.5709 37.5547C73.6132 37.6751 73.6767 37.7793 73.7613 37.8672C73.8264 37.9323 73.9061 37.986 74.0005 38.0283C74.095 38.0674 74.2056 38.0885 74.3326 38.0918ZM80.0797 36.7686L79.3228 37.3887L79.0445 39H77.814L79.1177 31.5H80.3482L79.6011 35.792L80.0845 35.3281L81.8179 33.7168H83.3853L80.983 35.9727L82.6675 39H81.2271L80.0797 36.7686ZM83.9957 36.3535C84.025 36.1322 84.0689 35.9092 84.1275 35.6846C84.1894 35.46 84.2691 35.2451 84.3668 35.04C84.4644 34.835 84.58 34.6445 84.7134 34.4688C84.8469 34.293 85.0015 34.14 85.1773 34.0098C85.3498 33.8828 85.5419 33.7852 85.7535 33.7168C85.9683 33.6452 86.2027 33.6126 86.4566 33.6191C86.6161 33.6224 86.7691 33.6436 86.9156 33.6826C87.0621 33.7184 87.1988 33.7754 87.3257 33.8535C87.4006 33.9023 87.4722 33.9593 87.5406 34.0244C87.6122 34.0895 87.6757 34.1611 87.731 34.2393L87.9068 33.7119L89.0347 33.7168L88.1656 38.8438C88.1135 39.1953 88.0093 39.5111 87.8531 39.791C87.7001 40.071 87.5064 40.307 87.272 40.499C87.0311 40.6943 86.7577 40.8424 86.4517 40.9434C86.1457 41.0443 85.8153 41.0898 85.4605 41.0801C85.1089 41.0736 84.7688 40.9971 84.44 40.8506C84.1145 40.7041 83.8427 40.4893 83.6246 40.2061L84.2642 39.4541C84.414 39.6494 84.5881 39.8024 84.7867 39.9131C84.9852 40.0238 85.2099 40.0824 85.4605 40.0889C85.6558 40.0954 85.8349 40.0693 85.9976 40.0107C86.1636 39.9554 86.3101 39.874 86.4371 39.7666C86.564 39.6624 86.6698 39.5339 86.7545 39.3809C86.8423 39.2311 86.9058 39.0618 86.9449 38.873L87.0181 38.5264C86.94 38.6045 86.857 38.6761 86.7691 38.7412C86.6812 38.8063 86.5917 38.8617 86.5005 38.9072C86.3736 38.9756 86.2401 39.0244 86.1002 39.0537C85.9634 39.0863 85.8186 39.1009 85.6656 39.0977C85.4312 39.0944 85.2229 39.0537 85.0406 38.9756C84.8616 38.8975 84.7069 38.7917 84.5767 38.6582C84.4465 38.528 84.3375 38.3766 84.2496 38.2041C84.1649 38.0283 84.0998 37.8428 84.0543 37.6475C84.0054 37.4554 83.9761 37.2585 83.9664 37.0566C83.9566 36.8516 83.9631 36.6514 83.9859 36.4561L83.9957 36.3535ZM85.2213 36.4561C85.2115 36.5635 85.205 36.6774 85.2017 36.7979C85.1985 36.9183 85.205 37.0371 85.2213 37.1543C85.2343 37.2715 85.2587 37.3838 85.2945 37.4912C85.3303 37.5986 85.3808 37.693 85.4459 37.7744C85.511 37.859 85.5923 37.9274 85.69 37.9795C85.7909 38.0316 85.9114 38.0609 86.0513 38.0674C86.175 38.0706 86.2906 38.0592 86.398 38.0332C86.5054 38.0039 86.6047 37.9616 86.6959 37.9062C86.7805 37.8574 86.8586 37.7988 86.9302 37.7305C87.0051 37.6621 87.0751 37.5856 87.1402 37.501L87.5455 35.2109C87.5032 35.1165 87.4527 35.0352 87.3941 34.9668C87.3355 34.8952 87.2704 34.835 87.1988 34.7861C87.1272 34.7438 87.0474 34.7113 86.9595 34.6885C86.8749 34.6624 86.7805 34.6478 86.6763 34.6445C86.4452 34.638 86.2434 34.6868 86.0709 34.791C85.9016 34.8952 85.76 35.0303 85.6461 35.1963C85.5289 35.3623 85.4361 35.5479 85.3677 35.7529C85.3026 35.958 85.2571 36.1582 85.231 36.3535L85.2213 36.4561ZM94.0103 33.6094C94.1796 33.6126 94.3456 33.6257 94.5084 33.6484C94.6711 33.6712 94.8339 33.7054 94.9966 33.751L94.6597 35.0059C94.4937 34.9635 94.3277 34.931 94.1617 34.9082C93.9957 34.8822 93.8264 34.8675 93.6539 34.8643C93.4651 34.861 93.2893 34.8805 93.1265 34.9229C92.967 34.9652 92.8173 35.027 92.6773 35.1084C92.5504 35.1833 92.4332 35.2777 92.3257 35.3916C92.2183 35.5023 92.119 35.6309 92.0279 35.7773L91.4713 39H90.2408L91.1539 33.7168H92.3062L92.1988 34.376L92.1646 34.5811C92.2851 34.4378 92.412 34.306 92.5455 34.1855C92.6789 34.0651 92.8238 33.9609 92.98 33.873C93.133 33.7917 93.2942 33.7282 93.4634 33.6826C93.636 33.6338 93.8183 33.6094 94.0103 33.6094ZM95.6802 36.3438C95.7258 35.9727 95.8218 35.6195 95.9683 35.2842C96.1181 34.9489 96.3134 34.6559 96.5543 34.4053C96.7886 34.1579 97.0653 33.9626 97.3843 33.8193C97.7066 33.6761 98.063 33.6094 98.4537 33.6191C98.7304 33.6224 98.9778 33.6647 99.1959 33.7461C99.414 33.8275 99.6028 33.9382 99.7623 34.0781C99.8892 34.1953 100.002 34.3255 100.099 34.4688C100.197 34.6087 100.277 34.7617 100.338 34.9277C100.41 35.1328 100.457 35.3525 100.48 35.5869C100.506 35.818 100.506 36.054 100.48 36.2949L100.465 36.4023C100.42 36.7702 100.324 37.1201 100.177 37.4521C100.031 37.7809 99.8388 38.069 99.6011 38.3164C99.3668 38.5638 99.0884 38.7591 98.7662 38.9023C98.4439 39.0456 98.0875 39.1123 97.6968 39.1025C97.4104 39.096 97.15 39.0472 96.9156 38.9561C96.6845 38.8617 96.4957 38.7428 96.3492 38.5996C96.2255 38.4759 96.1197 38.3506 96.0318 38.2236C95.9472 38.0934 95.8755 37.9502 95.817 37.7939C95.7421 37.5954 95.6916 37.3822 95.6656 37.1543C95.6428 36.9232 95.6444 36.6872 95.6705 36.4463L95.6802 36.3438ZM96.9009 36.4463C96.8814 36.6221 96.8749 36.8076 96.8814 37.0029C96.8912 37.195 96.9286 37.3724 96.9937 37.5352C97.0491 37.6914 97.1402 37.8232 97.2672 37.9307C97.3941 38.0348 97.565 38.0902 97.7798 38.0967C98.011 38.1032 98.2112 38.056 98.3804 37.9551C98.553 37.8509 98.6994 37.7158 98.8199 37.5498C98.9338 37.387 99.025 37.2015 99.0933 36.9932C99.1617 36.7848 99.2089 36.5879 99.2349 36.4023L99.2447 36.2998C99.261 36.1175 99.2658 35.9255 99.2593 35.7236C99.2528 35.5186 99.2089 35.3249 99.1275 35.1426C99.0657 34.9961 98.9729 34.8789 98.8492 34.791C98.7287 34.6999 98.5692 34.6494 98.3707 34.6396C98.1363 34.6299 97.9328 34.6771 97.7603 34.7812C97.591 34.8822 97.4478 35.0156 97.3306 35.1816C97.2134 35.3477 97.1207 35.5332 97.0523 35.7383C96.9839 35.9434 96.9367 36.1452 96.9107 36.3438L96.9009 36.4463ZM103.18 39.1025C102.861 39.0993 102.601 39.0309 102.399 38.8975C102.197 38.764 102.039 38.5931 101.925 38.3848C101.805 38.1634 101.732 37.9209 101.706 37.6572C101.68 37.3903 101.681 37.1201 101.711 36.8467L102.233 33.7168H103.463L102.941 36.8613C102.925 37.0013 102.915 37.1429 102.912 37.2861C102.912 37.4294 102.931 37.5579 102.97 37.6719C103.009 37.7858 103.076 37.8802 103.17 37.9551C103.268 38.0267 103.405 38.0641 103.581 38.0674C103.721 38.0706 103.851 38.0576 103.971 38.0283C104.095 37.9958 104.209 37.9486 104.313 37.8867C104.401 37.8346 104.482 37.7728 104.557 37.7012C104.635 37.6263 104.707 37.5417 104.772 37.4473L105.426 33.7168H106.662L105.744 39H104.63L104.738 38.2578C104.539 38.5052 104.31 38.7103 104.049 38.873C103.792 39.0326 103.503 39.109 103.18 39.1025ZM107.145 39L108.063 33.7168L109.167 33.7119L109.074 34.4639C109.165 34.3564 109.259 34.2572 109.357 34.166C109.458 34.0716 109.565 33.9886 109.679 33.917C109.829 33.8193 109.992 33.7445 110.168 33.6924C110.343 33.6403 110.53 33.6159 110.729 33.6191C111.035 33.6257 111.287 33.6891 111.486 33.8096C111.688 33.9268 111.846 34.083 111.96 34.2783C112.077 34.4736 112.153 34.6982 112.189 34.9521C112.225 35.2061 112.228 35.4681 112.199 35.7383L111.652 39H110.421L110.963 35.7432C110.983 35.5837 110.985 35.4388 110.968 35.3086C110.952 35.1751 110.915 35.0612 110.856 34.9668C110.794 34.8691 110.708 34.7943 110.597 34.7422C110.49 34.6868 110.35 34.6576 110.177 34.6543C110.057 34.651 109.941 34.6641 109.831 34.6934C109.723 34.7194 109.622 34.7585 109.528 34.8105C109.437 34.8594 109.35 34.9212 109.269 34.9961C109.188 35.0677 109.111 35.1475 109.04 35.2354L108.38 39H107.145ZM113.336 36.3486C113.363 36.1305 113.405 35.9108 113.463 35.6895C113.525 35.4681 113.603 35.2549 113.698 35.0498C113.792 34.8447 113.903 34.6543 114.03 34.4785C114.16 34.2995 114.311 34.1449 114.484 34.0146C114.653 33.8877 114.842 33.7884 115.05 33.7168C115.259 33.6452 115.49 33.6126 115.744 33.6191C115.897 33.6224 116.042 33.6436 116.178 33.6826C116.315 33.7217 116.442 33.777 116.559 33.8486C116.637 33.8942 116.709 33.9479 116.774 34.0098C116.842 34.0684 116.906 34.1351 116.964 34.21L117.472 31.5H118.708L117.409 39H116.305L116.378 38.4482C116.3 38.5361 116.217 38.6159 116.129 38.6875C116.042 38.7591 115.95 38.821 115.856 38.873C115.726 38.9479 115.586 39.0049 115.436 39.0439C115.286 39.083 115.127 39.1009 114.958 39.0977C114.723 39.0911 114.518 39.0488 114.342 38.9707C114.167 38.8893 114.015 38.7819 113.888 38.6484C113.761 38.5182 113.655 38.3669 113.571 38.1943C113.489 38.0218 113.428 37.8379 113.385 37.6426C113.343 37.4505 113.317 37.2536 113.307 37.0518C113.301 36.8467 113.307 36.6481 113.327 36.4561L113.336 36.3486ZM114.557 36.4561C114.544 36.5765 114.536 36.71 114.533 36.8564C114.53 36.9997 114.539 37.138 114.562 37.2715C114.582 37.3757 114.606 37.4717 114.635 37.5596C114.668 37.6442 114.712 37.7223 114.767 37.7939C114.829 37.8721 114.907 37.9355 115.002 37.9844C115.096 38.0332 115.211 38.0592 115.348 38.0625C115.475 38.069 115.592 38.056 115.7 38.0234C115.81 37.9909 115.911 37.9453 116.003 37.8867C116.081 37.8346 116.155 37.7728 116.227 37.7012C116.302 37.6263 116.372 37.5465 116.437 37.4619L116.823 35.25C116.787 35.1523 116.741 35.0661 116.686 34.9912C116.634 34.9163 116.571 34.8545 116.496 34.8057C116.427 34.7536 116.349 34.7145 116.261 34.6885C116.173 34.6624 116.076 34.6478 115.968 34.6445C115.737 34.638 115.539 34.6868 115.373 34.791C115.207 34.8952 115.068 35.0303 114.958 35.1963C114.847 35.3623 114.761 35.5479 114.699 35.7529C114.637 35.958 114.595 36.1582 114.572 36.3535L114.557 36.4561ZM129.225 33.6094C129.394 33.6126 129.56 33.6257 129.723 33.6484C129.886 33.6712 130.049 33.7054 130.211 33.751L129.875 35.0059C129.709 34.9635 129.543 34.931 129.377 34.9082C129.211 34.8822 129.041 34.8675 128.869 34.8643C128.68 34.861 128.504 34.8805 128.341 34.9229C128.182 34.9652 128.032 35.027 127.892 35.1084C127.765 35.1833 127.648 35.2777 127.541 35.3916C127.433 35.5023 127.334 35.6309 127.243 35.7773L126.686 39H125.456L126.369 33.7168H127.521L127.414 34.376L127.379 34.5811C127.5 34.4378 127.627 34.306 127.76 34.1855C127.894 34.0651 128.039 33.9609 128.195 33.873C128.348 33.7917 128.509 33.7282 128.678 33.6826C128.851 33.6338 129.033 33.6094 129.225 33.6094ZM133.131 39.0977C132.77 39.0944 132.445 39.026 132.155 38.8926C131.868 38.7559 131.629 38.5736 131.437 38.3457C131.242 38.1178 131.099 37.8525 131.007 37.5498C130.916 37.2438 130.887 36.9134 130.919 36.5586L130.939 36.3584C130.968 36.0785 131.032 35.8066 131.129 35.543C131.23 35.2793 131.359 35.0352 131.515 34.8105C131.632 34.651 131.763 34.5013 131.906 34.3613C132.052 34.2181 132.209 34.0944 132.375 33.9902C132.573 33.8698 132.79 33.777 133.024 33.7119C133.262 33.6436 133.511 33.6126 133.771 33.6191C134.139 33.6289 134.455 33.707 134.718 33.8535C134.982 33.9967 135.195 34.1872 135.358 34.4248C135.517 34.6657 135.625 34.9408 135.68 35.25C135.739 35.5592 135.747 35.8831 135.705 36.2217L135.622 36.7588H132.13C132.121 36.9378 132.139 37.1071 132.184 37.2666C132.233 37.4229 132.305 37.5612 132.399 37.6816C132.493 37.7988 132.612 37.8932 132.755 37.9648C132.902 38.0365 133.07 38.0739 133.258 38.0771C133.542 38.0869 133.807 38.0365 134.054 37.9258C134.302 37.8151 134.523 37.6605 134.718 37.4619L135.299 38.1309C135.062 38.4596 134.744 38.7038 134.347 38.8633C133.953 39.0228 133.548 39.1009 133.131 39.0977ZM133.683 34.6396C133.498 34.6331 133.33 34.6641 133.18 34.7324C133.034 34.8008 132.904 34.8952 132.79 35.0156C132.669 35.1328 132.567 35.2663 132.482 35.416C132.397 35.5625 132.322 35.7122 132.257 35.8652L134.538 35.8701L134.562 35.7529C134.585 35.6032 134.582 35.4616 134.552 35.3281C134.523 35.1947 134.469 35.0775 134.391 34.9766C134.313 34.8789 134.214 34.8008 134.093 34.7422C133.976 34.6803 133.839 34.6462 133.683 34.6396ZM138.141 33.7119L138.024 34.332C138.144 34.1237 138.294 33.9528 138.473 33.8193C138.652 33.6826 138.869 33.6143 139.123 33.6143C139.237 33.6143 139.339 33.6305 139.43 33.6631C139.525 33.6956 139.609 33.7412 139.684 33.7998C139.736 33.8421 139.78 33.8958 139.816 33.9609C139.852 34.026 139.879 34.0993 139.899 34.1807C140.029 34.0146 140.176 33.8796 140.338 33.7754C140.504 33.668 140.698 33.6159 140.919 33.6191C141.102 33.6224 141.255 33.6631 141.378 33.7412C141.502 33.8161 141.597 33.9137 141.662 34.0342C141.769 34.2327 141.831 34.4427 141.847 34.6641C141.864 34.8822 141.857 35.0856 141.828 35.2744L141.212 39H140.08L140.729 35.1768C140.736 35.1182 140.737 35.0579 140.734 34.9961C140.731 34.9342 140.719 34.8773 140.7 34.8252C140.68 34.7764 140.648 34.7357 140.602 34.7031C140.56 34.6673 140.501 34.6494 140.426 34.6494C140.364 34.6494 140.306 34.6592 140.251 34.6787C140.198 34.6982 140.151 34.7259 140.109 34.7617C140.076 34.7878 140.045 34.8171 140.016 34.8496C139.99 34.8822 139.964 34.918 139.938 34.957L139.235 39H138.136L138.781 35.1719C138.787 35.1133 138.791 35.0531 138.791 34.9912C138.791 34.9294 138.781 34.8724 138.761 34.8203C138.742 34.7715 138.711 34.7324 138.669 34.7031C138.626 34.6706 138.566 34.6543 138.488 34.6543C138.426 34.651 138.367 34.6608 138.312 34.6836C138.26 34.7031 138.214 34.7308 138.175 34.7666C138.136 34.7959 138.102 34.8301 138.073 34.8691C138.044 34.9049 138.016 34.944 137.99 34.9863L137.292 39H136.164L137.082 33.7168L138.141 33.7119ZM142.633 36.3438C142.679 35.9727 142.775 35.6195 142.921 35.2842C143.071 34.9489 143.266 34.6559 143.507 34.4053C143.742 34.1579 144.018 33.9626 144.337 33.8193C144.66 33.6761 145.016 33.6094 145.407 33.6191C145.683 33.6224 145.931 33.6647 146.149 33.7461C146.367 33.8275 146.556 33.9382 146.715 34.0781C146.842 34.1953 146.955 34.3255 147.052 34.4688C147.15 34.6087 147.23 34.7617 147.292 34.9277C147.363 35.1328 147.41 35.3525 147.433 35.5869C147.459 35.818 147.459 36.054 147.433 36.2949L147.419 36.4023C147.373 36.7702 147.277 37.1201 147.13 37.4521C146.984 37.7809 146.792 38.069 146.554 38.3164C146.32 38.5638 146.042 38.7591 145.719 38.9023C145.397 39.0456 145.041 39.1123 144.65 39.1025C144.364 39.096 144.103 39.0472 143.869 38.9561C143.638 38.8617 143.449 38.7428 143.302 38.5996C143.179 38.4759 143.073 38.3506 142.985 38.2236C142.9 38.0934 142.829 37.9502 142.77 37.7939C142.695 37.5954 142.645 37.3822 142.619 37.1543C142.596 36.9232 142.598 36.6872 142.624 36.4463L142.633 36.3438ZM143.854 36.4463C143.835 36.6221 143.828 36.8076 143.835 37.0029C143.844 37.195 143.882 37.3724 143.947 37.5352C144.002 37.6914 144.093 37.8232 144.22 37.9307C144.347 38.0348 144.518 38.0902 144.733 38.0967C144.964 38.1032 145.164 38.056 145.334 37.9551C145.506 37.8509 145.653 37.7158 145.773 37.5498C145.887 37.387 145.978 37.2015 146.046 36.9932C146.115 36.7848 146.162 36.5879 146.188 36.4023L146.198 36.2998C146.214 36.1175 146.219 35.9255 146.212 35.7236C146.206 35.5186 146.162 35.3249 146.081 35.1426C146.019 34.9961 145.926 34.8789 145.802 34.791C145.682 34.6999 145.522 34.6494 145.324 34.6396C145.089 34.6299 144.886 34.6771 144.713 34.7812C144.544 34.8822 144.401 35.0156 144.284 35.1816C144.167 35.3477 144.074 35.5332 144.005 35.7383C143.937 35.9434 143.89 36.1452 143.864 36.3438L143.854 36.4463ZM149.958 39L148.791 33.7168L150.006 33.7119L150.646 37.4912L150.661 37.8379L150.797 37.457L152.56 33.7168H153.878L151.076 39H149.958ZM156.608 39.0977C156.247 39.0944 155.921 39.026 155.631 38.8926C155.345 38.7559 155.106 38.5736 154.914 38.3457C154.718 38.1178 154.575 37.8525 154.484 37.5498C154.393 37.2438 154.364 36.9134 154.396 36.5586L154.416 36.3584C154.445 36.0785 154.508 35.8066 154.606 35.543C154.707 35.2793 154.836 35.0352 154.992 34.8105C155.109 34.651 155.239 34.5013 155.382 34.3613C155.529 34.2181 155.685 34.0944 155.851 33.9902C156.05 33.8698 156.266 33.777 156.501 33.7119C156.738 33.6436 156.987 33.6126 157.248 33.6191C157.615 33.6289 157.931 33.707 158.195 33.8535C158.459 33.9967 158.672 34.1872 158.835 34.4248C158.994 34.6657 159.101 34.9408 159.157 35.25C159.215 35.5592 159.224 35.8831 159.181 36.2217L159.098 36.7588H155.607C155.597 36.9378 155.615 37.1071 155.661 37.2666C155.71 37.4229 155.781 37.5612 155.876 37.6816C155.97 37.7988 156.089 37.8932 156.232 37.9648C156.378 38.0365 156.546 38.0739 156.735 38.0771C157.018 38.0869 157.283 38.0365 157.531 37.9258C157.778 37.8151 158 37.6605 158.195 37.4619L158.776 38.1309C158.538 38.4596 158.221 38.7038 157.824 38.8633C157.43 39.0228 157.025 39.1009 156.608 39.0977ZM157.16 34.6396C156.974 34.6331 156.807 34.6641 156.657 34.7324C156.51 34.8008 156.38 34.8952 156.266 35.0156C156.146 35.1328 156.043 35.2663 155.959 35.416C155.874 35.5625 155.799 35.7122 155.734 35.8652L158.014 35.8701L158.039 35.7529C158.061 35.6032 158.058 35.4616 158.029 35.3281C158 35.1947 157.946 35.0775 157.868 34.9766C157.79 34.8789 157.69 34.8008 157.57 34.7422C157.453 34.6803 157.316 34.6462 157.16 34.6396ZM164.44 33.6094C164.609 33.6126 164.775 33.6257 164.938 33.6484C165.101 33.6712 165.264 33.7054 165.426 33.751L165.089 35.0059C164.923 34.9635 164.757 34.931 164.591 34.9082C164.425 34.8822 164.256 34.8675 164.084 34.8643C163.895 34.861 163.719 34.8805 163.556 34.9229C163.397 34.9652 163.247 35.027 163.107 35.1084C162.98 35.1833 162.863 35.2777 162.755 35.3916C162.648 35.5023 162.549 35.6309 162.458 35.7773L161.901 39H160.67L161.584 33.7168H162.736L162.628 34.376L162.594 34.5811C162.715 34.4378 162.842 34.306 162.975 34.1855C163.109 34.0651 163.253 33.9609 163.41 33.873C163.563 33.7917 163.724 33.7282 163.893 33.6826C164.066 33.6338 164.248 33.6094 164.44 33.6094Z" fill="var(--fg-muted)"/>
<circle cx="24.5" cy="24.5" r="24.5" fill="var(--floral-white)"/>
<path d="M41.4216 10.4404C44.7021 14.3823 46.5017 19.3473 46.5017 24.501C46.5017 25.7237 46.3965 26.9513 46.1921 28.165L31.7498 19.8291H31.7507L31.575 19.7236L31.5671 19.7188L28.4578 17.9248L41.4216 10.4404Z" fill="var(--accent)" stroke="var(--accent)"/>
<path d="M24.5007 2.5C29.648 2.5 34.5806 4.28634 38.5203 7.55273L20.782 17.7871V2.81738C22.0135 2.60688 23.2612 2.5 24.5007 2.5Z" fill="var(--accent)" stroke="var(--accent)"/>
<path d="M16.8284 24.3707L3.86261 16.8766C4.9582 13.9151 6.70496 11.1837 8.94366 8.94397L8.94269 8.94299C11.1717 6.71407 13.8802 4.9797 16.8294 3.88049L16.8284 24.3707Z" fill="var(--accent)" stroke="var(--accent)"/>
<path d="M18.3574 29.8187L18.7236 30.0306L18.7266 30.0258L20.5508 31.0795L7.58496 38.5668C4.30151 34.6215 2.5 29.6547 2.5 24.5004C2.50002 23.2749 2.60454 22.0461 2.80859 20.8334L18.3574 29.8187Z" fill="var(--accent)" stroke="var(--accent)"/>
<path d="M28.2181 46.1821C26.9875 46.393 25.7405 46.4995 24.5013 46.4995C19.3607 46.4995 14.4311 44.717 10.4905 41.4546L28.2181 31.2144V46.1821Z" fill="var(--accent)" stroke="var(--accent)"/>
<path d="M45.1404 32.1202C44.0429 35.0852 42.2974 37.8185 40.0574 40.0577C37.8274 42.2877 35.1189 44.0222 32.1697 45.1202V28.4415L32.1746 28.2404V24.6359L45.1404 32.1202Z" fill="var(--accent)" stroke="var(--accent)"/>
</svg>
