<svg width="169" height="45" viewBox="0 0 169 45" fill="none" xmlns="http://www.w3.org/2000/svg">
<path d="M39.4216 8.44049C42.7021 12.3824 44.5017 17.3473 44.5017 22.501C44.5017 23.7238 44.3965 24.9513 44.1921 26.1651L29.7498 17.8292H29.7507L29.575 17.7237L29.5671 17.7188L26.4578 15.9249L39.4216 8.44049Z" fill="var(--accent)" stroke="var(--accent)"/>
<path d="M22.5007 0.5C27.648 0.5 32.5806 2.28634 36.5203 5.55273L18.782 15.7871V0.817383C20.0135 0.606878 21.2612 0.500003 22.5007 0.5Z" fill="var(--accent)" stroke="var(--accent)"/>
<path d="M14.8284 22.3707L1.86261 14.8765C2.9582 11.915 4.70496 9.18368 6.94366 6.94391L6.94269 6.94293C9.17174 4.71401 11.8802 2.97964 14.8294 1.88043L14.8284 22.3707Z" fill="var(--accent)" stroke="var(--accent)"/>
<path d="M16.3574 27.8187L16.7236 28.0306L16.7266 28.0258L18.5508 29.0795L5.58496 36.5668C2.30151 32.6215 0.5 27.6547 0.5 22.5004C0.500025 21.2749 0.604543 20.0461 0.808594 18.8334L16.3574 27.8187Z" fill="var(--accent)" stroke="var(--accent)"/>
<path d="M26.2181 44.1821C24.9875 44.393 23.7405 44.4995 22.5013 44.4995C17.3607 44.4995 12.4311 42.717 8.49054 39.4546L26.2181 29.2144V44.1821Z" fill="var(--accent)" stroke="var(--accent)"/>
<path d="M43.1404 30.1202C42.0429 33.0852 40.2974 35.8185 38.0574 38.0577C35.8274 40.2877 33.1189 42.0222 30.1697 43.1202V26.4415L30.1746 26.2404V22.6359L43.1404 30.1202Z" fill="var(--accent)" stroke="var(--accent)"/>
<path d="M66.7598 21.3184C66.7598 21.0254 66.7044 20.7617 66.5938 20.5273C66.4831 20.2865 66.3138 20.0651 66.0859 19.8633C65.8516 19.6745 65.5586 19.502 65.207 19.3457C64.862 19.1895 64.4518 19.0462 63.9766 18.916C63.2474 18.7142 62.5931 18.4701 62.0137 18.1836C61.4342 17.8906 60.9525 17.5651 60.5684 17.207C60.1777 16.849 59.8783 16.4486 59.6699 16.0059C59.4616 15.5566 59.3574 15.0618 59.3574 14.5215C59.3574 13.9225 59.4844 13.3789 59.7383 12.8906C59.9987 12.4023 60.3535 11.9889 60.8027 11.6504C61.2454 11.3053 61.7663 11.0417 62.3652 10.8594C62.9642 10.6771 63.6055 10.5859 64.2891 10.5859C65.0052 10.5859 65.666 10.6934 66.2715 10.9082C66.8835 11.1165 67.4108 11.4128 67.8535 11.7969C68.2962 12.181 68.6413 12.64 68.8887 13.1738C69.1426 13.7077 69.2695 14.2936 69.2695 14.9316H66.7695C66.75 14.5931 66.6816 14.2839 66.5645 14.0039C66.4538 13.724 66.2975 13.4831 66.0957 13.2812C65.8809 13.0794 65.6204 12.9232 65.3145 12.8125C65.0085 12.6953 64.6536 12.6367 64.25 12.6367C63.8919 12.6367 63.5664 12.6823 63.2734 12.7734C62.9805 12.8646 62.7298 12.9915 62.5215 13.1543C62.3132 13.3236 62.1536 13.5254 62.043 13.7598C61.9323 13.9876 61.877 14.2415 61.877 14.5215C61.877 14.821 61.9486 15.0879 62.0918 15.3223C62.2415 15.5501 62.4499 15.7487 62.7168 15.918C62.9837 16.1003 63.2962 16.263 63.6543 16.4062C64.0189 16.543 64.4128 16.6699 64.8359 16.7871C65.3372 16.9303 65.8158 17.1029 66.2715 17.3047C66.7337 17.5065 67.1569 17.7474 67.541 18.0273C68.0749 18.4245 68.5013 18.8932 68.8203 19.4336C69.1393 19.9674 69.2988 20.5892 69.2988 21.2988C69.2988 21.9238 69.1686 22.4772 68.9082 22.959C68.6543 23.4408 68.3027 23.8477 67.8535 24.1797C67.4108 24.5117 66.8867 24.7624 66.2812 24.9316C65.6823 25.1009 65.0378 25.1855 64.3477 25.1855C63.6445 25.1855 62.9512 25.0781 62.2676 24.8633C61.584 24.6484 60.9883 24.3359 60.4805 23.9258C60.0052 23.5286 59.6276 23.0632 59.3477 22.5293C59.0742 21.9889 58.9342 21.3639 58.9277 20.6543H61.4473C61.4668 21.084 61.5482 21.4551 61.6914 21.7676C61.8411 22.0801 62.043 22.3405 62.2969 22.5488C62.5508 22.7507 62.8503 22.9004 63.1953 22.998C63.5469 23.0957 63.931 23.1445 64.3477 23.1445C64.7122 23.1445 65.041 23.1022 65.334 23.0176C65.627 22.9329 65.8809 22.8125 66.0957 22.6562C66.304 22.5 66.4668 22.3079 66.584 22.0801C66.7012 21.8522 66.7598 21.5983 66.7598 21.3184ZM72.2871 25L70.3145 14.4336H72.6191L73.498 20.8105L73.6445 21.9238L73.8496 20.8105L75.0996 14.4336H76.7793L78.0391 20.7812L78.2441 21.9336L78.4102 20.7715L79.2695 14.4336H81.5742L79.6016 25H77.4238L76.1543 19.1797L75.9199 17.9883L75.6953 19.1797L74.4648 25H72.2871ZM84.0938 14.4336H89.7773V22.9297H92.7656V25H84.0938V22.9297H87.2285V16.5137H84.0938V14.4336ZM87.0234 11.7188C87.0234 11.5169 87.0592 11.3314 87.1309 11.1621C87.2025 10.9928 87.3034 10.8464 87.4336 10.7227C87.5573 10.6055 87.707 10.5143 87.8828 10.4492C88.0651 10.3841 88.2669 10.3516 88.4883 10.3516C88.9049 10.3516 89.237 10.4622 89.4844 10.6836C89.7383 10.9049 89.875 11.1947 89.8945 11.5527C89.9141 11.9043 89.8164 12.2005 89.6016 12.4414C89.3932 12.6823 89.097 12.819 88.7129 12.8516C88.5306 12.9167 88.3418 12.9427 88.1465 12.9297C87.9577 12.9102 87.7721 12.8483 87.5898 12.7441C87.4076 12.6465 87.2676 12.5065 87.1699 12.3242C87.0723 12.1419 87.0234 11.9401 87.0234 11.7188ZM98.1172 25V16.3086H95.3145V14.4336H98.1172V13.8184C98.1172 13.1283 98.2246 12.5195 98.4395 11.9922C98.6608 11.4648 98.9701 11.0189 99.3672 10.6543C99.7708 10.2962 100.256 10.026 100.822 9.84375C101.395 9.65495 102.033 9.56055 102.736 9.56055C102.971 9.56055 103.195 9.57031 103.41 9.58984C103.632 9.60938 103.85 9.63542 104.064 9.66797C104.26 9.69401 104.455 9.72331 104.65 9.75586C104.846 9.78841 105.048 9.82747 105.256 9.87305L105.07 11.8652C104.823 11.8066 104.536 11.7546 104.211 11.709C103.892 11.6634 103.524 11.6406 103.107 11.6406C102.658 11.6406 102.274 11.6927 101.955 11.7969C101.636 11.901 101.382 12.054 101.193 12.2559C101.011 12.4316 100.874 12.653 100.783 12.9199C100.699 13.1803 100.656 13.4798 100.656 13.8184V14.4336H104.523V16.3086H100.656V25H98.1172ZM112.326 11.8555V14.4336H116.281V16.3086H112.326V21.1035C112.326 21.4941 112.372 21.8197 112.463 22.0801C112.554 22.334 112.681 22.5358 112.844 22.6855C113.013 22.8483 113.215 22.9622 113.449 23.0273C113.684 23.0924 113.941 23.125 114.221 23.125C114.423 23.125 114.631 23.1152 114.846 23.0957C115.067 23.0697 115.279 23.0404 115.48 23.0078C115.676 22.9818 115.858 22.9525 116.027 22.9199C116.203 22.8874 116.35 22.8548 116.467 22.8223L116.73 24.5703C116.548 24.6745 116.333 24.7656 116.086 24.8438C115.845 24.9219 115.585 24.987 115.305 25.0391C115.025 25.0911 114.732 25.1302 114.426 25.1562C114.126 25.1888 113.827 25.2051 113.527 25.2051C112.974 25.2051 112.466 25.1302 112.004 24.9805C111.548 24.8307 111.158 24.5964 110.832 24.2773C110.5 23.9648 110.243 23.5645 110.061 23.0762C109.885 22.5879 109.797 21.9987 109.797 21.3086V16.3086H107.307V14.4336H109.797V11.8555H112.326Z" fill="currentColor"/>
<path d="M123.801 10.7812L124.299 16.4551L126.965 10.7812H130.09L127.619 25H125.314L126.115 20.3809L127.316 14.1895L124.318 20.4688H123.039L122.355 14.1406L121.35 20.5859L120.578 25H118.273L120.744 10.7812H123.801ZM136.76 25C136.708 24.8242 136.678 24.6549 136.672 24.4922C136.665 24.3229 136.665 24.1504 136.672 23.9746C136.529 24.1113 136.379 24.2383 136.223 24.3555C136.073 24.4661 135.917 24.5703 135.754 24.668C135.448 24.8438 135.119 24.9772 134.768 25.0684C134.423 25.1595 134.058 25.2018 133.674 25.1953C133.231 25.1888 132.811 25.1139 132.414 24.9707C132.017 24.821 131.672 24.6126 131.379 24.3457C131.079 24.0853 130.848 23.7695 130.686 23.3984C130.523 23.0208 130.451 22.5977 130.471 22.1289C130.497 21.6602 130.588 21.2467 130.744 20.8887C130.907 20.5306 131.115 20.2181 131.369 19.9512C131.63 19.6908 131.929 19.4694 132.268 19.2871C132.606 19.1048 132.967 18.9583 133.352 18.8477C133.729 18.737 134.12 18.6589 134.523 18.6133C134.934 18.5677 135.337 18.5449 135.734 18.5449L137.355 18.5645L137.482 17.8711C137.521 17.5977 137.508 17.3568 137.443 17.1484C137.385 16.9336 137.284 16.7513 137.141 16.6016C136.997 16.4583 136.818 16.3477 136.604 16.2695C136.389 16.1914 136.148 16.1491 135.881 16.1426C135.633 16.1361 135.402 16.1621 135.188 16.2207C134.979 16.2728 134.79 16.3607 134.621 16.4844C134.465 16.5951 134.331 16.7383 134.221 16.9141C134.11 17.0898 134.032 17.2917 133.986 17.5195L131.516 17.5391C131.561 16.9661 131.73 16.4714 132.023 16.0547C132.316 15.6315 132.681 15.2832 133.117 15.0098C133.553 14.7363 134.035 14.5378 134.562 14.4141C135.096 14.2839 135.62 14.222 136.135 14.2285C136.688 14.2415 137.209 14.3294 137.697 14.4922C138.186 14.6549 138.609 14.8861 138.967 15.1855C139.318 15.498 139.582 15.8822 139.758 16.3379C139.94 16.7871 140.002 17.3112 139.943 17.9102L139.201 22.5293C139.143 22.9069 139.1 23.291 139.074 23.6816C139.048 24.0723 139.1 24.4531 139.23 24.8242L139.211 25H136.76ZM134.299 23.2129C134.572 23.2194 134.839 23.1901 135.1 23.125C135.367 23.0534 135.617 22.9525 135.852 22.8223C136.027 22.7181 136.197 22.5977 136.359 22.4609C136.522 22.3242 136.672 22.1712 136.809 22.002L137.15 20.1074L135.881 20.0977C135.601 20.0977 135.311 20.1204 135.012 20.166C134.719 20.2116 134.442 20.2865 134.182 20.3906C134.025 20.4688 133.876 20.5534 133.732 20.6445C133.589 20.7357 133.465 20.8496 133.361 20.9863C133.264 21.1035 133.182 21.237 133.117 21.3867C133.052 21.5365 133.007 21.709 132.98 21.9043C132.954 22.1191 132.967 22.3079 133.02 22.4707C133.078 22.6335 133.169 22.7702 133.293 22.8809C133.41 22.985 133.553 23.0664 133.723 23.125C133.898 23.1836 134.09 23.2129 134.299 23.2129ZM149.133 22.0605C149.159 21.8913 149.139 21.7448 149.074 21.6211C149.016 21.4909 148.931 21.377 148.82 21.2793C148.723 21.2012 148.605 21.1328 148.469 21.0742C148.332 21.0091 148.192 20.957 148.049 20.918C147.782 20.8529 147.528 20.7943 147.287 20.7422C147.053 20.6836 146.831 20.6283 146.623 20.5762C146.232 20.472 145.871 20.3548 145.539 20.2246C145.214 20.0879 144.898 19.9154 144.592 19.707C144.227 19.4727 143.931 19.1797 143.703 18.8281C143.482 18.4701 143.381 18.0404 143.4 17.5391C143.42 16.8945 143.615 16.3444 143.986 15.8887C144.364 15.4264 144.823 15.0684 145.363 14.8145C145.767 14.6257 146.203 14.4824 146.672 14.3848C147.147 14.2806 147.606 14.2318 148.049 14.2383C148.576 14.2448 149.087 14.3164 149.582 14.4531C150.083 14.5898 150.529 14.7982 150.92 15.0781C151.304 15.3581 151.613 15.7096 151.848 16.1328C152.082 16.5495 152.199 17.0508 152.199 17.6367L149.748 17.627C149.755 17.36 149.712 17.1322 149.621 16.9434C149.53 16.7546 149.403 16.5983 149.24 16.4746C149.071 16.3509 148.876 16.2598 148.654 16.2012C148.439 16.1426 148.208 16.1133 147.961 16.1133C147.746 16.1133 147.518 16.1361 147.277 16.1816C147.043 16.2207 146.818 16.2891 146.604 16.3867C146.395 16.4909 146.216 16.6276 146.066 16.7969C145.917 16.9661 145.822 17.1745 145.783 17.4219C145.738 17.6758 145.777 17.8809 145.9 18.0371C146.031 18.1934 146.193 18.3171 146.389 18.4082C146.59 18.5059 146.809 18.5807 147.043 18.6328C147.277 18.6784 147.482 18.7207 147.658 18.7598C147.919 18.8118 148.189 18.8737 148.469 18.9453C148.755 19.0169 149.032 19.1048 149.299 19.209C149.501 19.2806 149.696 19.3652 149.885 19.4629C150.074 19.554 150.249 19.6615 150.412 19.7852C150.751 20.0195 151.027 20.3125 151.242 20.6641C151.457 21.0091 151.551 21.4323 151.525 21.9336C151.493 22.5781 151.301 23.1185 150.949 23.5547C150.598 23.9844 150.168 24.3262 149.66 24.5801C149.204 24.8014 148.71 24.9609 148.176 25.0586C147.648 25.1628 147.147 25.2116 146.672 25.2051C146.138 25.1986 145.614 25.1204 145.1 24.9707C144.585 24.821 144.126 24.5964 143.723 24.2969C143.312 24.0039 142.98 23.6393 142.727 23.2031C142.479 22.7669 142.359 22.2526 142.365 21.6602L144.719 21.6699C144.732 21.9694 144.794 22.2266 144.904 22.4414C145.015 22.6497 145.168 22.819 145.363 22.9492C145.552 23.0859 145.77 23.1868 146.018 23.252C146.265 23.3105 146.525 23.3398 146.799 23.3398C147.014 23.3398 147.248 23.3236 147.502 23.291C147.756 23.252 148 23.1836 148.234 23.0859C148.456 22.9948 148.648 22.8678 148.811 22.7051C148.98 22.5358 149.087 22.321 149.133 22.0605ZM158.215 20.5371L156.701 21.7773L156.145 25H153.684L156.291 10H158.752L157.258 18.584L158.225 17.6562L161.691 14.4336H164.826L160.021 18.9453L163.391 25H160.51L158.215 20.5371Z" fill="var(--accent)"/>
<path d="M63.2051 34.3828C63.179 34.6009 63.1367 34.8223 63.0781 35.0469C63.0195 35.2682 62.9447 35.4798 62.8535 35.6816C62.7624 35.8867 62.6517 36.0771 62.5215 36.2529C62.3945 36.4287 62.248 36.5801 62.082 36.707C61.916 36.834 61.7272 36.9316 61.5156 37C61.3073 37.0716 61.0762 37.1042 60.8223 37.0977C60.6465 37.0944 60.4788 37.0684 60.3193 37.0195C60.1598 36.9707 60.0133 36.8975 59.8799 36.7998C59.8148 36.7477 59.7513 36.6908 59.6895 36.6289C59.6309 36.5671 59.5755 36.4987 59.5234 36.4238L59.333 37H58.2148L59.5137 29.5H60.749L60.2266 32.2197C60.2982 32.1449 60.3714 32.0765 60.4463 32.0146C60.5212 31.9528 60.596 31.8991 60.6709 31.8535C60.8076 31.7754 60.9508 31.7168 61.1006 31.6777C61.2536 31.6354 61.4163 31.6159 61.5889 31.6191C61.8298 31.6257 62.0397 31.668 62.2188 31.7461C62.401 31.8242 62.5573 31.9284 62.6875 32.0586C62.8145 32.1888 62.917 32.3418 62.9951 32.5176C63.0765 32.6901 63.1367 32.874 63.1758 33.0693C63.2148 33.2646 63.236 33.4665 63.2393 33.6748C63.2458 33.8799 63.2393 34.0817 63.2197 34.2803L63.2051 34.3828ZM61.9844 34.2803C61.9974 34.1663 62.0055 34.0459 62.0088 33.9189C62.0153 33.7887 62.012 33.6602 61.999 33.5332C61.986 33.4193 61.9632 33.3102 61.9307 33.2061C61.8981 33.1019 61.8509 33.0091 61.7891 32.9277C61.7272 32.8464 61.6475 32.7812 61.5498 32.7324C61.4554 32.6836 61.3382 32.6576 61.1982 32.6543C61.0713 32.651 60.9541 32.6641 60.8467 32.6934C60.7393 32.7227 60.6383 32.7666 60.5439 32.8252C60.4561 32.8805 60.3747 32.9473 60.2998 33.0254C60.2249 33.1003 60.1549 33.1849 60.0898 33.2793L59.7188 35.4424C59.7513 35.54 59.792 35.6263 59.8408 35.7012C59.8929 35.776 59.9548 35.8395 60.0264 35.8916C60.1045 35.9535 60.1956 35.999 60.2998 36.0283C60.4072 36.0576 60.5098 36.0723 60.6074 36.0723C60.7734 36.0723 60.9069 36.0544 61.0078 36.0186C61.1087 35.9827 61.2048 35.9323 61.2959 35.8672C61.4066 35.7891 61.5026 35.6898 61.584 35.5693C61.6654 35.4456 61.7305 35.3154 61.7793 35.1787C61.8281 35.055 61.8688 34.9248 61.9014 34.7881C61.9339 34.6481 61.9583 34.513 61.9746 34.3828L61.9844 34.2803ZM67.3506 37C67.3245 36.9121 67.3099 36.8275 67.3066 36.7461C67.3034 36.6615 67.3034 36.5752 67.3066 36.4873C67.235 36.5557 67.1602 36.6191 67.082 36.6777C67.0072 36.7331 66.929 36.7852 66.8477 36.834C66.6947 36.9219 66.5303 36.9886 66.3545 37.0342C66.182 37.0798 65.9997 37.1009 65.8076 37.0977C65.5863 37.0944 65.3763 37.057 65.1777 36.9854C64.9792 36.9105 64.8066 36.8063 64.6602 36.6729C64.5104 36.5426 64.3949 36.3848 64.3135 36.1992C64.2321 36.0104 64.1963 35.7988 64.2061 35.5645C64.2191 35.3301 64.2646 35.1234 64.3428 34.9443C64.4242 34.7653 64.5283 34.609 64.6553 34.4756C64.7855 34.3454 64.9352 34.2347 65.1045 34.1436C65.2738 34.0524 65.4544 33.9792 65.6465 33.9238C65.8353 33.8685 66.0306 33.8294 66.2324 33.8066C66.4375 33.7839 66.6393 33.7725 66.8379 33.7725L67.6484 33.7822L67.7119 33.4355C67.7314 33.2988 67.7249 33.1784 67.6924 33.0742C67.6631 32.9668 67.6126 32.8757 67.541 32.8008C67.4694 32.7292 67.3799 32.6738 67.2725 32.6348C67.165 32.5957 67.0446 32.5745 66.9111 32.5713C66.7874 32.568 66.6719 32.5811 66.5645 32.6104C66.4603 32.6364 66.3659 32.6803 66.2812 32.7422C66.2031 32.7975 66.1364 32.8691 66.0811 32.957C66.0257 33.0449 65.9867 33.1458 65.9639 33.2598L64.7285 33.2695C64.7513 32.9831 64.8359 32.7357 64.9824 32.5273C65.1289 32.3158 65.3112 32.1416 65.5293 32.0049C65.7474 31.8682 65.9883 31.7689 66.252 31.707C66.5189 31.6419 66.7809 31.611 67.0381 31.6143C67.3148 31.6208 67.5752 31.6647 67.8193 31.7461C68.0635 31.8275 68.2751 31.943 68.4541 32.0928C68.6299 32.249 68.7617 32.4411 68.8496 32.6689C68.9408 32.8936 68.9717 33.1556 68.9424 33.4551L68.5713 35.7646C68.542 35.9535 68.5208 36.1455 68.5078 36.3408C68.4948 36.5361 68.5208 36.7266 68.5859 36.9121L68.5762 37H67.3506ZM66.1201 36.1064C66.2568 36.1097 66.3903 36.0951 66.5205 36.0625C66.654 36.0267 66.7793 35.9762 66.8965 35.9111C66.9844 35.859 67.069 35.7988 67.1504 35.7305C67.2318 35.6621 67.3066 35.5856 67.375 35.501L67.5459 34.5537L66.9111 34.5488C66.7712 34.5488 66.6263 34.5602 66.4766 34.583C66.3301 34.6058 66.1917 34.6432 66.0615 34.6953C65.9834 34.7344 65.9085 34.7767 65.8369 34.8223C65.7653 34.8678 65.7035 34.9248 65.6514 34.9932C65.6025 35.0518 65.5618 35.1185 65.5293 35.1934C65.4967 35.2682 65.474 35.3545 65.4609 35.4521C65.4479 35.5596 65.4544 35.654 65.4805 35.7354C65.5098 35.8167 65.5553 35.8851 65.6172 35.9404C65.6758 35.9925 65.7474 36.0332 65.832 36.0625C65.9199 36.0918 66.016 36.1064 66.1201 36.1064ZM72.3311 36.0918C72.4678 36.0951 72.5996 36.0788 72.7266 36.043C72.8535 36.0039 72.9691 35.9453 73.0732 35.8672C73.1742 35.7956 73.2604 35.7061 73.332 35.5986C73.4036 35.488 73.4525 35.3643 73.4785 35.2275L74.6309 35.2178C74.6113 35.5107 74.5299 35.776 74.3867 36.0137C74.2435 36.248 74.0612 36.4466 73.8398 36.6094C73.6185 36.7721 73.3711 36.8975 73.0977 36.9854C72.8275 37.07 72.5524 37.109 72.2725 37.1025C72.0283 37.0993 71.8053 37.0651 71.6035 37C71.4049 36.9316 71.2292 36.8421 71.0762 36.7314C70.8874 36.585 70.7279 36.4076 70.5977 36.1992C70.4707 35.9909 70.3779 35.763 70.3193 35.5156C70.2803 35.3529 70.2559 35.182 70.2461 35.0029C70.2363 34.8239 70.2412 34.6416 70.2607 34.4561L70.2803 34.2949C70.3258 33.9173 70.4251 33.5641 70.5781 33.2354C70.7344 32.9066 70.9395 32.6104 71.1934 32.3467C71.4245 32.109 71.6947 31.9268 72.0039 31.7998C72.3164 31.6696 72.6598 31.6094 73.0342 31.6191C73.3304 31.6257 73.599 31.6794 73.8398 31.7803C74.084 31.8812 74.2907 32.0195 74.46 32.1953C74.6292 32.3743 74.7562 32.5876 74.8408 32.835C74.9287 33.0791 74.9645 33.3493 74.9482 33.6455L73.791 33.6406C73.8008 33.5039 73.7894 33.3753 73.7568 33.2549C73.7243 33.1344 73.6706 33.0286 73.5957 32.9375C73.5241 32.8496 73.4329 32.7796 73.3223 32.7275C73.2116 32.6755 73.083 32.6462 72.9365 32.6396C72.7803 32.6331 72.6403 32.651 72.5166 32.6934C72.3929 32.7357 72.2806 32.7943 72.1797 32.8691C72.0983 32.9342 72.0234 33.0107 71.9551 33.0986C71.8867 33.1865 71.8298 33.276 71.7842 33.3672C71.7093 33.5072 71.6491 33.6569 71.6035 33.8164C71.5612 33.9759 71.5303 34.1354 71.5107 34.2949L71.4863 34.4512C71.4766 34.5618 71.4701 34.6807 71.4668 34.8076C71.4635 34.9313 71.4684 35.0518 71.4814 35.1689C71.4977 35.3024 71.527 35.431 71.5693 35.5547C71.6117 35.6751 71.6751 35.7793 71.7598 35.8672C71.8249 35.9323 71.9046 35.986 71.999 36.0283C72.0934 36.0674 72.2041 36.0885 72.3311 36.0918ZM78.0781 34.7686L77.3213 35.3887L77.043 37H75.8125L77.1162 29.5H78.3467L77.5996 33.792L78.083 33.3281L79.8164 31.7168H81.3838L78.9814 33.9727L80.666 37H79.2256L78.0781 34.7686ZM81.9941 34.3535C82.0234 34.1322 82.0674 33.9092 82.126 33.6846C82.1878 33.46 82.2676 33.2451 82.3652 33.04C82.4629 32.835 82.5785 32.6445 82.7119 32.4688C82.8454 32.293 83 32.14 83.1758 32.0098C83.3483 31.8828 83.5404 31.7852 83.752 31.7168C83.9668 31.6452 84.2012 31.6126 84.4551 31.6191C84.6146 31.6224 84.7676 31.6436 84.9141 31.6826C85.0605 31.7184 85.1973 31.7754 85.3242 31.8535C85.3991 31.9023 85.4707 31.9593 85.5391 32.0244C85.6107 32.0895 85.6742 32.1611 85.7295 32.2393L85.9053 31.7119L87.0332 31.7168L86.1641 36.8438C86.112 37.1953 86.0078 37.5111 85.8516 37.791C85.6986 38.071 85.5049 38.307 85.2705 38.499C85.0296 38.6943 84.7562 38.8424 84.4502 38.9434C84.1442 39.0443 83.8138 39.0898 83.459 39.0801C83.1074 39.0736 82.7673 38.9971 82.4385 38.8506C82.113 38.7041 81.8411 38.4893 81.623 38.2061L82.2627 37.4541C82.4124 37.6494 82.5866 37.8024 82.7852 37.9131C82.9837 38.0238 83.2083 38.0824 83.459 38.0889C83.6543 38.0954 83.8333 38.0693 83.9961 38.0107C84.1621 37.9554 84.3086 37.874 84.4355 37.7666C84.5625 37.6624 84.6683 37.5339 84.7529 37.3809C84.8408 37.2311 84.9043 37.0618 84.9434 36.873L85.0166 36.5264C84.9385 36.6045 84.8555 36.6761 84.7676 36.7412C84.6797 36.8063 84.5902 36.8617 84.499 36.9072C84.3721 36.9756 84.2386 37.0244 84.0986 37.0537C83.9619 37.0863 83.8171 37.1009 83.6641 37.0977C83.4297 37.0944 83.2214 37.0537 83.0391 36.9756C82.86 36.8975 82.7054 36.7917 82.5752 36.6582C82.445 36.528 82.3359 36.3766 82.248 36.2041C82.1634 36.0283 82.0983 35.8428 82.0527 35.6475C82.0039 35.4554 81.9746 35.2585 81.9648 35.0566C81.9551 34.8516 81.9616 34.6514 81.9844 34.4561L81.9941 34.3535ZM83.2197 34.4561C83.21 34.5635 83.2035 34.6774 83.2002 34.7979C83.1969 34.9183 83.2035 35.0371 83.2197 35.1543C83.2327 35.2715 83.2572 35.3838 83.293 35.4912C83.3288 35.5986 83.3792 35.693 83.4443 35.7744C83.5094 35.859 83.5908 35.9274 83.6885 35.9795C83.7894 36.0316 83.9098 36.0609 84.0498 36.0674C84.1735 36.0706 84.2891 36.0592 84.3965 36.0332C84.5039 36.0039 84.6032 35.9616 84.6943 35.9062C84.779 35.8574 84.8571 35.7988 84.9287 35.7305C85.0036 35.6621 85.0736 35.5856 85.1387 35.501L85.5439 33.2109C85.5016 33.1165 85.4512 33.0352 85.3926 32.9668C85.334 32.8952 85.2689 32.835 85.1973 32.7861C85.1257 32.7438 85.0459 32.7113 84.958 32.6885C84.8734 32.6624 84.779 32.6478 84.6748 32.6445C84.4437 32.638 84.2419 32.6868 84.0693 32.791C83.9001 32.8952 83.7585 33.0303 83.6445 33.1963C83.5273 33.3623 83.4346 33.5479 83.3662 33.7529C83.3011 33.958 83.2555 34.1582 83.2295 34.3535L83.2197 34.4561ZM92.0088 31.6094C92.1781 31.6126 92.3441 31.6257 92.5068 31.6484C92.6696 31.6712 92.8324 31.7054 92.9951 31.751L92.6582 33.0059C92.4922 32.9635 92.3262 32.931 92.1602 32.9082C91.9941 32.8822 91.8249 32.8675 91.6523 32.8643C91.4635 32.861 91.2878 32.8805 91.125 32.9229C90.9655 32.9652 90.8158 33.027 90.6758 33.1084C90.5488 33.1833 90.4316 33.2777 90.3242 33.3916C90.2168 33.5023 90.1175 33.6309 90.0264 33.7773L89.4697 37H88.2393L89.1523 31.7168H90.3047L90.1973 32.376L90.1631 32.5811C90.2835 32.4378 90.4105 32.306 90.5439 32.1855C90.6774 32.0651 90.8223 31.9609 90.9785 31.873C91.1315 31.7917 91.2926 31.7282 91.4619 31.6826C91.6344 31.6338 91.8167 31.6094 92.0088 31.6094ZM93.6787 34.3438C93.7243 33.9727 93.8203 33.6195 93.9668 33.2842C94.1165 32.9489 94.3118 32.6559 94.5527 32.4053C94.7871 32.1579 95.0638 31.9626 95.3828 31.8193C95.7051 31.6761 96.0615 31.6094 96.4521 31.6191C96.7288 31.6224 96.9762 31.6647 97.1943 31.7461C97.4124 31.8275 97.6012 31.9382 97.7607 32.0781C97.8877 32.1953 98 32.3255 98.0977 32.4688C98.1953 32.6087 98.2751 32.7617 98.3369 32.9277C98.4085 33.1328 98.4557 33.3525 98.4785 33.5869C98.5046 33.818 98.5046 34.054 98.4785 34.2949L98.4639 34.4023C98.4183 34.7702 98.3223 35.1201 98.1758 35.4521C98.0293 35.7809 97.8372 36.069 97.5996 36.3164C97.3652 36.5638 97.0869 36.7591 96.7646 36.9023C96.4424 37.0456 96.0859 37.1123 95.6953 37.1025C95.4089 37.096 95.1484 37.0472 94.9141 36.9561C94.6829 36.8617 94.4941 36.7428 94.3477 36.5996C94.224 36.4759 94.1182 36.3506 94.0303 36.2236C93.9456 36.0934 93.874 35.9502 93.8154 35.7939C93.7406 35.5954 93.6901 35.3822 93.6641 35.1543C93.6413 34.9232 93.6429 34.6872 93.6689 34.4463L93.6787 34.3438ZM94.8994 34.4463C94.8799 34.6221 94.8734 34.8076 94.8799 35.0029C94.8896 35.195 94.9271 35.3724 94.9922 35.5352C95.0475 35.6914 95.1387 35.8232 95.2656 35.9307C95.3926 36.0348 95.5635 36.0902 95.7783 36.0967C96.0094 36.1032 96.2096 36.056 96.3789 35.9551C96.5514 35.8509 96.6979 35.7158 96.8184 35.5498C96.9323 35.387 97.0234 35.2015 97.0918 34.9932C97.1602 34.7848 97.2074 34.5879 97.2334 34.4023L97.2432 34.2998C97.2594 34.1175 97.2643 33.9255 97.2578 33.7236C97.2513 33.5186 97.2074 33.3249 97.126 33.1426C97.0641 32.9961 96.9714 32.8789 96.8477 32.791C96.7272 32.6999 96.5677 32.6494 96.3691 32.6396C96.1348 32.6299 95.9313 32.6771 95.7588 32.7812C95.5895 32.8822 95.4463 33.0156 95.3291 33.1816C95.2119 33.3477 95.1191 33.5332 95.0508 33.7383C94.9824 33.9434 94.9352 34.1452 94.9092 34.3438L94.8994 34.4463ZM101.179 37.1025C100.86 37.0993 100.599 37.0309 100.397 36.8975C100.196 36.764 100.038 36.5931 99.9238 36.3848C99.8034 36.1634 99.7301 35.9209 99.7041 35.6572C99.6781 35.3903 99.6797 35.1201 99.709 34.8467L100.231 31.7168H101.462L100.939 34.8613C100.923 35.0013 100.913 35.1429 100.91 35.2861C100.91 35.4294 100.93 35.5579 100.969 35.6719C101.008 35.7858 101.075 35.8802 101.169 35.9551C101.267 36.0267 101.403 36.0641 101.579 36.0674C101.719 36.0706 101.849 36.0576 101.97 36.0283C102.093 35.9958 102.207 35.9486 102.312 35.8867C102.399 35.8346 102.481 35.7728 102.556 35.7012C102.634 35.6263 102.705 35.5417 102.771 35.4473L103.425 31.7168H104.66L103.742 37H102.629L102.736 36.2578C102.538 36.5052 102.308 36.7103 102.048 36.873C101.791 37.0326 101.501 37.109 101.179 37.1025ZM105.144 37L106.062 31.7168L107.165 31.7119L107.072 32.4639C107.163 32.3564 107.258 32.2572 107.355 32.166C107.456 32.0716 107.564 31.9886 107.678 31.917C107.827 31.8193 107.99 31.7445 108.166 31.6924C108.342 31.6403 108.529 31.6159 108.728 31.6191C109.034 31.6257 109.286 31.6891 109.484 31.8096C109.686 31.9268 109.844 32.083 109.958 32.2783C110.075 32.4736 110.152 32.6982 110.188 32.9521C110.223 33.2061 110.227 33.4681 110.197 33.7383L109.65 37H108.42L108.962 33.7432C108.981 33.5837 108.983 33.4388 108.967 33.3086C108.951 33.1751 108.913 33.0612 108.854 32.9668C108.793 32.8691 108.706 32.7943 108.596 32.7422C108.488 32.6868 108.348 32.6576 108.176 32.6543C108.055 32.651 107.94 32.6641 107.829 32.6934C107.722 32.7194 107.621 32.7585 107.526 32.8105C107.435 32.8594 107.349 32.9212 107.268 32.9961C107.186 33.0677 107.11 33.1475 107.038 33.2354L106.379 37H105.144ZM111.335 34.3486C111.361 34.1305 111.403 33.9108 111.462 33.6895C111.524 33.4681 111.602 33.2549 111.696 33.0498C111.791 32.8447 111.901 32.6543 112.028 32.4785C112.159 32.2995 112.31 32.1449 112.482 32.0146C112.652 31.8877 112.84 31.7884 113.049 31.7168C113.257 31.6452 113.488 31.6126 113.742 31.6191C113.895 31.6224 114.04 31.6436 114.177 31.6826C114.313 31.7217 114.44 31.777 114.558 31.8486C114.636 31.8942 114.707 31.9479 114.772 32.0098C114.841 32.0684 114.904 32.1351 114.963 32.21L115.471 29.5H116.706L115.407 37H114.304L114.377 36.4482C114.299 36.5361 114.216 36.6159 114.128 36.6875C114.04 36.7591 113.949 36.821 113.854 36.873C113.724 36.9479 113.584 37.0049 113.435 37.0439C113.285 37.083 113.125 37.1009 112.956 37.0977C112.722 37.0911 112.517 37.0488 112.341 36.9707C112.165 36.8893 112.014 36.7819 111.887 36.6484C111.76 36.5182 111.654 36.3669 111.569 36.1943C111.488 36.0218 111.426 35.8379 111.384 35.6426C111.341 35.4505 111.315 35.2536 111.306 35.0518C111.299 34.8467 111.306 34.6481 111.325 34.4561L111.335 34.3486ZM112.556 34.4561C112.543 34.5765 112.535 34.71 112.531 34.8564C112.528 34.9997 112.538 35.138 112.561 35.2715C112.58 35.3757 112.604 35.4717 112.634 35.5596C112.666 35.6442 112.71 35.7223 112.766 35.7939C112.827 35.8721 112.906 35.9355 113 35.9844C113.094 36.0332 113.21 36.0592 113.347 36.0625C113.474 36.069 113.591 36.056 113.698 36.0234C113.809 35.9909 113.91 35.9453 114.001 35.8867C114.079 35.8346 114.154 35.7728 114.226 35.7012C114.3 35.6263 114.37 35.5465 114.436 35.4619L114.821 33.25C114.785 33.1523 114.74 33.0661 114.685 32.9912C114.632 32.9163 114.569 32.8545 114.494 32.8057C114.426 32.7536 114.348 32.7145 114.26 32.6885C114.172 32.6624 114.074 32.6478 113.967 32.6445C113.736 32.638 113.537 32.6868 113.371 32.791C113.205 32.8952 113.067 33.0303 112.956 33.1963C112.845 33.3623 112.759 33.5479 112.697 33.7529C112.635 33.958 112.593 34.1582 112.57 34.3535L112.556 34.4561ZM127.224 31.6094C127.393 31.6126 127.559 31.6257 127.722 31.6484C127.884 31.6712 128.047 31.7054 128.21 31.751L127.873 33.0059C127.707 32.9635 127.541 32.931 127.375 32.9082C127.209 32.8822 127.04 32.8675 126.867 32.8643C126.678 32.861 126.503 32.8805 126.34 32.9229C126.18 32.9652 126.031 33.027 125.891 33.1084C125.764 33.1833 125.646 33.2777 125.539 33.3916C125.432 33.5023 125.332 33.6309 125.241 33.7773L124.685 37H123.454L124.367 31.7168H125.52L125.412 32.376L125.378 32.5811C125.498 32.4378 125.625 32.306 125.759 32.1855C125.892 32.0651 126.037 31.9609 126.193 31.873C126.346 31.7917 126.507 31.7282 126.677 31.6826C126.849 31.6338 127.032 31.6094 127.224 31.6094ZM131.13 37.0977C130.769 37.0944 130.443 37.026 130.153 36.8926C129.867 36.7559 129.628 36.5736 129.436 36.3457C129.24 36.1178 129.097 35.8525 129.006 35.5498C128.915 35.2438 128.885 34.9134 128.918 34.5586L128.938 34.3584C128.967 34.0785 129.03 33.8066 129.128 33.543C129.229 33.2793 129.357 33.0352 129.514 32.8105C129.631 32.651 129.761 32.5013 129.904 32.3613C130.051 32.2181 130.207 32.0944 130.373 31.9902C130.572 31.8698 130.788 31.777 131.022 31.7119C131.26 31.6436 131.509 31.6126 131.77 31.6191C132.137 31.6289 132.453 31.707 132.717 31.8535C132.98 31.9967 133.194 32.1872 133.356 32.4248C133.516 32.6657 133.623 32.9408 133.679 33.25C133.737 33.5592 133.745 33.8831 133.703 34.2217L133.62 34.7588H130.129C130.119 34.9378 130.137 35.1071 130.183 35.2666C130.231 35.4229 130.303 35.5612 130.397 35.6816C130.492 35.7988 130.611 35.8932 130.754 35.9648C130.9 36.0365 131.068 36.0739 131.257 36.0771C131.54 36.0869 131.805 36.0365 132.053 35.9258C132.3 35.8151 132.521 35.6605 132.717 35.4619L133.298 36.1309C133.06 36.4596 132.743 36.7038 132.346 36.8633C131.952 37.0228 131.547 37.1009 131.13 37.0977ZM131.682 32.6396C131.496 32.6331 131.328 32.6641 131.179 32.7324C131.032 32.8008 130.902 32.8952 130.788 33.0156C130.668 33.1328 130.565 33.2663 130.48 33.416C130.396 33.5625 130.321 33.7122 130.256 33.8652L132.536 33.8701L132.561 33.7529C132.583 33.6032 132.58 33.4616 132.551 33.3281C132.521 33.1947 132.468 33.0775 132.39 32.9766C132.312 32.8789 132.212 32.8008 132.092 32.7422C131.975 32.6803 131.838 32.6462 131.682 32.6396ZM136.14 31.7119L136.022 32.332C136.143 32.1237 136.293 31.9528 136.472 31.8193C136.651 31.6826 136.867 31.6143 137.121 31.6143C137.235 31.6143 137.338 31.6305 137.429 31.6631C137.523 31.6956 137.608 31.7412 137.683 31.7998C137.735 31.8421 137.779 31.8958 137.814 31.9609C137.85 32.026 137.878 32.0993 137.897 32.1807C138.028 32.0146 138.174 31.8796 138.337 31.7754C138.503 31.668 138.697 31.6159 138.918 31.6191C139.1 31.6224 139.253 31.6631 139.377 31.7412C139.501 31.8161 139.595 31.9137 139.66 32.0342C139.768 32.2327 139.829 32.4427 139.846 32.6641C139.862 32.8822 139.855 33.0856 139.826 33.2744L139.211 37H138.078L138.728 33.1768C138.734 33.1182 138.736 33.0579 138.732 32.9961C138.729 32.9342 138.718 32.8773 138.698 32.8252C138.679 32.7764 138.646 32.7357 138.601 32.7031C138.558 32.6673 138.5 32.6494 138.425 32.6494C138.363 32.6494 138.304 32.6592 138.249 32.6787C138.197 32.6982 138.15 32.7259 138.107 32.7617C138.075 32.7878 138.044 32.8171 138.015 32.8496C137.989 32.8822 137.963 32.918 137.937 32.957L137.233 37H136.135L136.779 33.1719C136.786 33.1133 136.789 33.0531 136.789 32.9912C136.789 32.9294 136.779 32.8724 136.76 32.8203C136.74 32.7715 136.709 32.7324 136.667 32.7031C136.625 32.6706 136.564 32.6543 136.486 32.6543C136.424 32.651 136.366 32.6608 136.311 32.6836C136.258 32.7031 136.213 32.7308 136.174 32.7666C136.135 32.7959 136.101 32.8301 136.071 32.8691C136.042 32.9049 136.014 32.944 135.988 32.9863L135.29 37H134.162L135.08 31.7168L136.14 31.7119ZM140.632 34.3438C140.677 33.9727 140.773 33.6195 140.92 33.2842C141.07 32.9489 141.265 32.6559 141.506 32.4053C141.74 32.1579 142.017 31.9626 142.336 31.8193C142.658 31.6761 143.015 31.6094 143.405 31.6191C143.682 31.6224 143.929 31.6647 144.147 31.7461C144.366 31.8275 144.554 31.9382 144.714 32.0781C144.841 32.1953 144.953 32.3255 145.051 32.4688C145.148 32.6087 145.228 32.7617 145.29 32.9277C145.362 33.1328 145.409 33.3525 145.432 33.5869C145.458 33.818 145.458 34.054 145.432 34.2949L145.417 34.4023C145.371 34.7702 145.275 35.1201 145.129 35.4521C144.982 35.7809 144.79 36.069 144.553 36.3164C144.318 36.5638 144.04 36.7591 143.718 36.9023C143.396 37.0456 143.039 37.1123 142.648 37.1025C142.362 37.096 142.102 37.0472 141.867 36.9561C141.636 36.8617 141.447 36.7428 141.301 36.5996C141.177 36.4759 141.071 36.3506 140.983 36.2236C140.899 36.0934 140.827 35.9502 140.769 35.7939C140.694 35.5954 140.643 35.3822 140.617 35.1543C140.594 34.9232 140.596 34.6872 140.622 34.4463L140.632 34.3438ZM141.853 34.4463C141.833 34.6221 141.826 34.8076 141.833 35.0029C141.843 35.195 141.88 35.3724 141.945 35.5352C142.001 35.6914 142.092 35.8232 142.219 35.9307C142.346 36.0348 142.517 36.0902 142.731 36.0967C142.963 36.1032 143.163 36.056 143.332 35.9551C143.505 35.8509 143.651 35.7158 143.771 35.5498C143.885 35.387 143.977 35.2015 144.045 34.9932C144.113 34.7848 144.16 34.5879 144.187 34.4023L144.196 34.2998C144.213 34.1175 144.217 33.9255 144.211 33.7236C144.204 33.5186 144.16 33.3249 144.079 33.1426C144.017 32.9961 143.924 32.8789 143.801 32.791C143.68 32.6999 143.521 32.6494 143.322 32.6396C143.088 32.6299 142.884 32.6771 142.712 32.7812C142.543 32.8822 142.399 33.0156 142.282 33.1816C142.165 33.3477 142.072 33.5332 142.004 33.7383C141.936 33.9434 141.888 34.1452 141.862 34.3438L141.853 34.4463ZM147.956 37L146.789 31.7168L148.005 31.7119L148.645 35.4912L148.659 35.8379L148.796 35.457L150.559 31.7168H151.877L149.074 37H147.956ZM154.606 37.0977C154.245 37.0944 153.92 37.026 153.63 36.8926C153.343 36.7559 153.104 36.5736 152.912 36.3457C152.717 36.1178 152.574 35.8525 152.482 35.5498C152.391 35.2438 152.362 34.9134 152.395 34.5586L152.414 34.3584C152.443 34.0785 152.507 33.8066 152.604 33.543C152.705 33.2793 152.834 33.0352 152.99 32.8105C153.107 32.651 153.238 32.5013 153.381 32.3613C153.527 32.2181 153.684 32.0944 153.85 31.9902C154.048 31.8698 154.265 31.777 154.499 31.7119C154.737 31.6436 154.986 31.6126 155.246 31.6191C155.614 31.6289 155.93 31.707 156.193 31.8535C156.457 31.9967 156.67 32.1872 156.833 32.4248C156.993 32.6657 157.1 32.9408 157.155 33.25C157.214 33.5592 157.222 33.8831 157.18 34.2217L157.097 34.7588H153.605C153.596 34.9378 153.614 35.1071 153.659 35.2666C153.708 35.4229 153.78 35.5612 153.874 35.6816C153.968 35.7988 154.087 35.8932 154.23 35.9648C154.377 36.0365 154.545 36.0739 154.733 36.0771C155.017 36.0869 155.282 36.0365 155.529 35.9258C155.777 35.8151 155.998 35.6605 156.193 35.4619L156.774 36.1309C156.537 36.4596 156.219 36.7038 155.822 36.8633C155.428 37.0228 155.023 37.1009 154.606 37.0977ZM155.158 32.6396C154.973 32.6331 154.805 32.6641 154.655 32.7324C154.509 32.8008 154.379 32.8952 154.265 33.0156C154.144 33.1328 154.042 33.2663 153.957 33.416C153.872 33.5625 153.798 33.7122 153.732 33.8652L156.013 33.8701L156.037 33.7529C156.06 33.6032 156.057 33.4616 156.027 33.3281C155.998 33.1947 155.944 33.0775 155.866 32.9766C155.788 32.8789 155.689 32.8008 155.568 32.7422C155.451 32.6803 155.314 32.6462 155.158 32.6396ZM162.438 31.6094C162.608 31.6126 162.774 31.6257 162.937 31.6484C163.099 31.6712 163.262 31.7054 163.425 31.751L163.088 33.0059C162.922 32.9635 162.756 32.931 162.59 32.9082C162.424 32.8822 162.255 32.8675 162.082 32.8643C161.893 32.861 161.717 32.8805 161.555 32.9229C161.395 32.9652 161.245 33.027 161.105 33.1084C160.979 33.1833 160.861 33.2777 160.754 33.3916C160.646 33.5023 160.547 33.6309 160.456 33.7773L159.899 37H158.669L159.582 31.7168H160.734L160.627 32.376L160.593 32.5811C160.713 32.4378 160.84 32.306 160.974 32.1855C161.107 32.0651 161.252 31.9609 161.408 31.873C161.561 31.7917 161.722 31.7282 161.892 31.6826C162.064 31.6338 162.246 31.6094 162.438 31.6094Z" fill="#CCC5B9"/>
</svg>
